<mxfile host="app.diagrams.net" modified="2023-05-23T00:46:09.743Z" agent="Mozilla/5.0 (Windows NT 10.0; Win64; x64) AppleWebKit/537.36 (KHTML, like Gecko) Chrome/113.0.0.0 Safari/537.36" version="21.3.2" etag="xJcVCTHRxhMcq8zq9M2Z" type="github">
  <diagram name="第 1 页" id="clGc6oRm_TYFhicR0cFy">
    <mxGraphModel>
      <root>
        <mxCell id="0" />
        <mxCell id="1" parent="0" />
      </root>
    </mxGraphModel>
  </diagram>
</mxfile>
